<?xml version="1.0" encoding="utf-8"?>
<!-- Generator: Adobe Illustrator 22.1.0, SVG Export Plug-In . SVG Version: 6.00 Build 0)  -->
<svg version="1.1" id="Layer_1" xmlns="http://www.w3.org/2000/svg" xmlns:xlink="http://www.w3.org/1999/xlink" x="0px" y="0px"
	 viewBox="0 0 123.7 130.7" style="enable-background:new 0 0 123.7 130.7;" xml:space="preserve">
<style type="text/css">
	.st0{fill:#666666;stroke:#231F20;stroke-width:2;stroke-linecap:round;stroke-miterlimit:10;}
	.st1{fill:#FFFFFF;stroke:#231F20;stroke-width:0.5;stroke-linecap:round;stroke-miterlimit:10;}
	.st2{fill:#666666;}
	.st3{fill:none;stroke:#4D4D4D;stroke-width:0.75;stroke-linecap:round;stroke-miterlimit:10;}
	.st4{fill:#FF0000;stroke:#231F20;stroke-linecap:round;stroke-miterlimit:10;}
	.st5{fill:#FF8C00;stroke:#231F20;stroke-linecap:round;stroke-miterlimit:10;}
	.st6{fill:#FF69B4;stroke:#231F20;stroke-linecap:round;stroke-miterlimit:10;}
	.st7{font-family:'ArialMT';}
	.st8{font-size:7px;}
	.st9{fill:none;}
	.st10{fill:none;stroke:#000000;stroke-miterlimit:10;}
	.st11{fill:none;stroke:#231F20;stroke-linecap:round;stroke-miterlimit:10;}
</style>
<circle class="st0" cx="51.7" cy="79" r="50.7"/>
<circle class="st1" cx="52.1" cy="79" r="45.3"/>
<ellipse transform="matrix(0.7071 -0.7071 0.7071 0.7071 17.053 79.5078)" class="st0" cx="104.5" cy="19.2" rx="23.4" ry="10.6"/>
<circle class="st0" cx="88.7" cy="37.2" r="7.1"/>
<g id="XMLID_1_">
	<g>
		<path class="st2" d="M88,47.7l3.7,8.8l-11.4-5.6c-2.4-1.3-4.7-2.3-6.9-2.9c0.2-0.9,0.5-1.6,1-2.2c0.4-0.5,1-0.9,1.6-1.1
			C78.7,43.6,83.3,45.2,88,47.7z"/>
		<path class="st2" d="M73.3,48c-1.6,7.5,7.1,23.8,3.7,27.3l-1.4,0.6c-1.5,0-3.5-1.1-5.8-2.7c-1.3-7.5-6.9-19.9-3.3-24.3
			c0.6-0.8,1.5-1.2,2.5-1.4C70.3,47.4,71.7,47.5,73.3,48z"/>
		<path class="st2" d="M75.9,44.6L75.9,44.6c-0.6,0.3-1.1,0.6-1.5,1.1c-0.5,0.6-0.8,1.3-1,2.2c-1.6-0.4-3.1-0.6-4.3-0.4v-0.1
			L75.9,44.6z"/>
		<path class="st2" d="M75.6,75.9l-6.3,2.6c0.9-1,1-2.9,0.5-5.3C72.1,74.8,74.2,75.9,75.6,75.9z"/>
		<path class="st2" d="M69.8,73.2c0.4,2.4,0.4,4.3-0.5,5.3C66,82,54.6,69.3,46.7,65.2c0.2-1.6,0.8-2.9,1.7-3.7
			C52.5,58,62.6,68.1,69.8,73.2z"/>
		<path class="st2" d="M46.7,65.2c-1.5,9.8,6.9,33,1.9,36.6c-0.2,0.2-0.4,0.3-0.7,0.3c-1.5,0.4-3.4-0.6-5.5-2.2
			c0.1-10.1-6.9-31-1.9-35.2l1.7-0.7C43.5,63.9,45,64.4,46.7,65.2z"/>
		<path class="st2" d="M42.3,64l6-2.5c-0.9,0.8-1.4,2-1.7,3.7C45,64.4,43.5,63.9,42.3,64z"/>
		<path class="st2" d="M47.9,102.2l0.1,0.3l-7.4,3l-0.1-0.3c0.1-0.1,0.2-0.1,0.3-0.2c1.1-0.8,1.6-2.6,1.6-5
			C44.5,101.6,46.5,102.6,47.9,102.2z"/>
		<path class="st2" d="M42.4,100c0,2.4-0.5,4.2-1.6,5c-0.1,0.1-0.2,0.1-0.3,0.2c-3.2,1.6-9.1-5.2-14.1-8.8c0.1-2.3,0.6-4.1,1.7-4.9
			C31.2,89.1,37.3,96.2,42.4,100z"/>
		<path class="st2" d="M28.1,109.6l2.2,10.9l-10-7.7c-1.4-6.7-2.9-15.9,0-18.1l1.1-0.4c1.4-0.2,3.1,0.7,5,2.2
			C26.2,100.2,27.1,105.4,28.1,109.6z"/>
		<path class="st2" d="M21.4,94.2l6.7-2.7c-1.1,0.8-1.6,2.6-1.7,4.9C24.5,95,22.8,94.1,21.4,94.2z"/>
	</g>
	<g>
		<path class="st3" d="M20.3,112.8c-1.4-6.7-2.9-15.9,0-18.1c0.3-0.3,0.7-0.4,1.1-0.4c1.4-0.2,3.1,0.7,5,2.2
			c4.9,3.6,10.9,10.4,14.1,8.8c0.1-0.1,0.2-0.1,0.3-0.2c1.1-0.8,1.6-2.6,1.6-5c0.1-10.1-6.9-31-1.9-35.2c0.5-0.4,1.1-0.6,1.7-0.7
			c1.2-0.1,2.8,0.3,4.4,1.2c7.9,4.1,19.3,16.8,22.6,13.3c0.9-1,1-2.9,0.5-5.3c-1.3-7.5-6.9-19.9-3.3-24.3c0.6-0.8,1.5-1.2,2.5-1.4
			c1.2-0.2,2.7,0,4.3,0.4c2.1,0.6,4.5,1.6,6.9,2.9"/>
		<path class="st3" d="M28.1,109.6c-0.9-4.2-1.8-9.4-1.6-13.2c0.1-2.3,0.6-4.1,1.7-4.9c3.1-2.4,9.2,4.7,14.3,8.5
			c2.1,1.6,4.1,2.6,5.5,2.2c0.2-0.1,0.5-0.2,0.7-0.3c5-3.6-3.4-26.8-1.9-36.6c0.2-1.6,0.8-2.9,1.7-3.7c4.2-3.5,14.2,6.6,21.5,11.7
			c2.3,1.6,4.3,2.7,5.8,2.7c0.6,0,1.1-0.2,1.4-0.6c3.4-3.5-5.3-19.8-3.7-27.3c0.2-0.9,0.5-1.6,1-2.2c0.4-0.5,1-0.9,1.6-1.1
			c2.8-1.1,7.4,0.6,12.1,3.1"/>
		<line class="st3" x1="30.3" y1="120.5" x2="28.1" y2="109.6"/>
		<polyline class="st3" points="20.3,94.7 21.4,94.2 28.1,91.5 		"/>
		<polyline class="st3" points="40.5,105.5 40.6,105.5 48,102.5 48.3,102.3 		"/>
		<polyline class="st3" points="40.5,64.7 42.3,64 48.3,61.5 		"/>
		<polyline class="st3" points="69.3,78.5 75.6,75.9 77.1,75.3 		"/>
		<polyline class="st3" points="76.6,44.3 75.9,44.6 69,47.5 		"/>
		<line class="st3" x1="80.2" y1="50.9" x2="91.6" y2="56.5"/>
		<line class="st3" x1="20.3" y1="112.8" x2="30.3" y2="120.5"/>
		<line class="st3" x1="91.6" y1="56.5" x2="88" y2="47.7"/>
	</g>
</g>
<circle class="st4" cx="21.9" cy="94.8" r="4.3"/>
<circle class="st5" cx="40.8" cy="105" r="4.3"/>
<circle class="st6" cx="39.4" cy="66.9" r="4.3"/>
<circle class="st4" cx="47.1" cy="62" r="4.3"/>
<circle class="st6" cx="78.3" cy="69.2" r="4.3"/>
<circle class="st6" cx="57.2" cy="64.9" r="4.3"/>
<circle class="st4" cx="74.5" cy="77" r="4.3"/>
<circle class="st5" cx="74" cy="45.9" r="4.3"/>
<text transform="matrix(1 0 0 1 19.9524 97.0139)" class="st7 st8">P</text>
<text transform="matrix(1 0 0 1 38.7855 106.9565)" class="st7 st8">P</text>
<text transform="matrix(1 0 0 1 37.9272 69.7334)" class="st7 st8">P</text>
<text transform="matrix(1 0 0 1 45.0888 64.173)" class="st7 st8">P</text>
<text transform="matrix(1 0 0 1 71.9524 48.0139)" class="st7 st8">P</text>
<text transform="matrix(1 0 0 1 55.9524 67.0139)" class="st7 st8">P</text>
<text transform="matrix(1 0 0 1 72.9524 80.0139)" class="st7 st8">P</text>
<text transform="matrix(1 0 0 1 76.9524 72.0139)" class="st7 st8">P</text>
<line class="st9" x1="47.1" y1="57.8" x2="49.4" y2="33.8"/>
<line class="st10" x1="21.9" y1="90.5" x2="7.9" y2="69.2"/>
<line class="st10" x1="47.1" y1="57.8" x2="57.2" y2="34"/>
<line class="st10" x1="77.3" y1="80.1" x2="79.5" y2="115.1"/>
<circle class="st11" cx="52.1" cy="79" r="45.3"/>
</svg>
