<?xml version="1.0" encoding="utf-8"?>
<!-- Generator: Adobe Illustrator 22.1.0, SVG Export Plug-In . SVG Version: 6.00 Build 0)  -->
<svg version="1.1" id="Layer_1" xmlns="http://www.w3.org/2000/svg" xmlns:xlink="http://www.w3.org/1999/xlink" x="0px" y="0px"
	 viewBox="0 0 627.6 141.7" style="enable-background:new 0 0 627.6 141.7;" xml:space="preserve">
<style type="text/css">
	.st0{fill:#FFFFFF;stroke:#000333;stroke-width:3;stroke-miterlimit:10;}
	.st1{font-family:'Baskerville';}
	.st2{font-size:117.7111px;}
	.st3{letter-spacing:-11.5;}
	.st4{fill:#666666;stroke:#231F20;stroke-width:2;stroke-linecap:round;stroke-miterlimit:10;}
	.st5{fill:#FFFFFF;stroke:#231F20;stroke-width:0.5;stroke-linecap:round;stroke-miterlimit:10;}
	.st6{fill:#666666;}
	.st7{fill:none;stroke:#4D4D4D;stroke-width:0.75;stroke-linecap:round;stroke-miterlimit:10;}
	.st8{fill:#FF0000;stroke:#231F20;stroke-linecap:round;stroke-miterlimit:10;}
	.st9{fill:#FF8C00;stroke:#231F20;stroke-linecap:round;stroke-miterlimit:10;}
	.st10{fill:#FF69B4;stroke:#231F20;stroke-linecap:round;stroke-miterlimit:10;}
	.st11{fill:none;}
	.st12{fill:none;stroke:#000000;stroke-miterlimit:10;}
	.st13{fill:none;stroke:#231F20;stroke-linecap:round;stroke-miterlimit:10;}
	.st14{font-family:'ArialMT';}
	.st15{font-size:6.3383px;}
</style>
<text transform="matrix(0.8696 0 0 1 1.5 111.845)" class="st0 st1 st2 st3">SUPERPHOS     </text>
<ellipse class="st4" cx="516.9" cy="70.8" rx="39.9" ry="45.9"/>
<ellipse class="st5" cx="517.2" cy="70.8" rx="35.7" ry="41"/>
<ellipse transform="matrix(0.6293 -0.7771 0.7771 0.6293 194.1023 440.1909)" class="st4" cx="558.5" cy="16.6" rx="19.9" ry="8.9"/>
<ellipse class="st4" cx="546.1" cy="33" rx="5.6" ry="6.4"/>
<g id="XMLID_1_">
	<g>
		<path class="st6" d="M545.5,42.5l2.9,8l-9-5.1c-1.9-1.2-3.7-2.1-5.4-2.6c0.2-0.8,0.4-1.4,0.8-2c0.3-0.5,0.7-0.8,1.2-1
			C538.2,38.7,541.8,40.2,545.5,42.5z"/>
		<path class="st6" d="M533.9,42.7c-1.3,6.8,5.6,21.6,2.9,24.7l-1.1,0.5c-1.2,0-2.8-1-4.6-2.4c-1-6.8-5.4-18-2.6-22
			c0.5-0.7,1.2-1.1,2-1.3C531.6,42.1,532.7,42.3,533.9,42.7z"/>
		<path class="st6" d="M535.7,67.9l-5,2.4c0.7-0.9,0.8-2.6,0.4-4.8C533,67,534.6,68,535.7,67.9z"/>
		<path class="st6" d="M534.7,40.7c-0.4,0.5-0.6,1.3-0.8,2c-1.3-0.5-2.4-0.5-3.4-0.4v-0.1l5.4-2.6l0,0
			C535.5,39.9,535.1,40.2,534.7,40.7z"/>
		<path class="st6" d="M514.2,55c3.3-3.2,11.2,6,16.9,10.6c0.3,2.2,0.3,3.9-0.4,4.8c-2.6,3.2-11.6-8.3-17.8-12
			C513.1,56.8,513.5,55.6,514.2,55z"/>
		<path class="st6" d="M509.5,57.2c0.9-0.1,2.2,0.3,3.5,1.1c-1.2,9,5.4,29.9,1.5,33.1c-0.2,0.1-0.3,0.3-0.6,0.3
			c-1.2,0.5-2.7-0.5-4.3-2c0.1-9.1-5.4-28.1-1.5-32L509.5,57.2z"/>
		<path class="st6" d="M513,58.3c-1.3-0.8-2.4-1.2-3.5-1.1l4.7-2.3C513.5,55.6,513.1,56.8,513,58.3z"/>
		<path class="st6" d="M509.6,89.8c0,2.2-0.4,3.8-1.3,4.5c-0.1,0.1-0.2,0.1-0.2,0.2c-2.5,1.4-7.2-4.7-11.1-8
			c0.1-2.1,0.5-3.7,1.3-4.4C500.8,80,505.6,86.3,509.6,89.8z"/>
		<path class="st6" d="M514,92l-5.8,2.7l-0.1-0.3c0.1-0.1,0.2-0.1,0.2-0.2c0.9-0.7,1.3-2.4,1.3-4.5c1.7,1.4,3.2,2.4,4.3,2L514,92z"
			/>
		<path class="st6" d="M498.3,98.5l1.7,9.9l-7.9-7.1c-1.1-6.1-2.3-14.4,0-16.4l0.9-0.4c1.1-0.2,2.4,0.6,3.9,1.9
			C496.8,90,497.6,94.7,498.3,98.5z"/>
		<path class="st6" d="M493.1,84.6l5.3-2.4c-0.9,0.7-1.2,2.4-1.3,4.4C495.5,85.2,494.2,84.4,493.1,84.6z"/>
	</g>
	<g>
		<path class="st7" d="M492.2,101.3c-1.1-6.1-2.3-14.4,0-16.4c0.2-0.3,0.6-0.4,0.9-0.4c1.1-0.2,2.4,0.6,3.9,1.9
			c3.9,3.3,8.6,9.4,11.1,8c0.1-0.1,0.2-0.1,0.2-0.2c0.9-0.7,1.3-2.4,1.3-4.5c0.1-9.1-5.4-28.1-1.5-32c0.4-0.4,0.9-0.5,1.3-0.6
			c0.9-0.1,2.2,0.3,3.5,1.1c6.2,3.7,15.2,15.1,17.8,12c0.7-0.9,0.8-2.6,0.4-4.8c-1-6.8-5.4-18-2.6-22c0.5-0.7,1.2-1.1,2-1.3
			c0.9-0.2,2.1,0,3.4,0.4c1.7,0.5,3.5,1.4,5.4,2.6"/>
		<path class="st7" d="M498.3,98.5c-0.7-3.8-1.4-8.5-1.3-12c0.1-2.1,0.5-3.7,1.3-4.4c2.4-2.2,7.2,4.3,11.3,7.7
			c1.7,1.4,3.2,2.4,4.3,2c0.2-0.1,0.4-0.2,0.6-0.3c3.9-3.3-2.7-24.3-1.5-33.1c0.2-1.4,0.6-2.6,1.3-3.4c3.3-3.2,11.2,6,16.9,10.6
			c1.8,1.4,3.4,2.4,4.6,2.4c0.5,0,0.9-0.2,1.1-0.5c2.7-3.2-4.2-17.9-2.9-24.7c0.2-0.8,0.4-1.4,0.8-2c0.3-0.5,0.7-0.8,1.2-1
			c2.2-1,5.8,0.5,9.5,2.8"/>
		<line class="st7" x1="500.1" y1="108.4" x2="498.3" y2="98.5"/>
		<polyline class="st7" points="492.2,85 493.1,84.6 498.3,82.1 		"/>
		<polyline class="st7" points="508.1,94.7 508.2,94.7 514,92 514.2,91.9 		"/>
		<polyline class="st7" points="508.1,57.9 509.5,57.2 514.2,55 		"/>
		<polyline class="st7" points="530.8,70.3 535.7,67.9 536.9,67.4 		"/>
		<polyline class="st7" points="536.5,39.3 536,39.7 530.5,42.2 		"/>
		<line class="st7" x1="539.4" y1="45.4" x2="548.3" y2="50.5"/>
		<line class="st7" x1="492.2" y1="101.3" x2="500.1" y2="108.4"/>
		<line class="st7" x1="548.3" y1="50.5" x2="545.5" y2="42.5"/>
	</g>
</g>
<ellipse class="st8" cx="493.5" cy="85" rx="3.4" ry="3.9"/>
<ellipse class="st9" cx="508.3" cy="94.3" rx="3.4" ry="3.9"/>
<ellipse class="st10" cx="507.2" cy="59.8" rx="3.4" ry="3.9"/>
<ellipse class="st8" cx="513.3" cy="55.4" rx="3.4" ry="3.9"/>
<ellipse class="st10" cx="537.9" cy="61.9" rx="3.4" ry="3.9"/>
<ellipse class="st10" cx="521.3" cy="58.1" rx="3.4" ry="3.9"/>
<ellipse class="st8" cx="534.9" cy="68.9" rx="3.4" ry="3.9"/>
<ellipse class="st9" cx="534.5" cy="40.8" rx="3.4" ry="3.9"/>
<line class="st11" x1="513.3" y1="51.5" x2="515.1" y2="29.9"/>
<line class="st12" x1="493.5" y1="81.1" x2="482.4" y2="61.9"/>
<line class="st12" x1="513.3" y1="51.5" x2="521.3" y2="30.1"/>
<line class="st12" x1="537.1" y1="71.8" x2="538.8" y2="103.4"/>
<ellipse class="st13" cx="517.2" cy="70.8" rx="35.7" ry="41"/>
<text transform="matrix(0.8696 0 0 1 506.974 96.8944)" class="st14 st15">P</text>
<text transform="matrix(0.8696 0 0 1 491.7822 87.5287)" class="st14 st15">P</text>
<text transform="matrix(0.8696 0 0 1 504.9532 61.9536)" class="st14 st15">P</text>
<text transform="matrix(0.8696 0 0 1 511.2151 57.2316)" class="st14 st15">P</text>
<text transform="matrix(0.8696 0 0 1 519.6282 59.7805)" class="st14 st15">P</text>
<text transform="matrix(0.8696 0 0 1 533.2606 70.9206)" class="st14 st15">P</text>
<text transform="matrix(0.8696 0 0 1 536.5284 63.674)" class="st14 st15">P</text>
<text transform="matrix(0.8696 0 0 1 532.9298 42.6671)" class="st14 st15">P</text>
</svg>
